<?xml version="1.0" standalone="no"?>
<!DOCTYPE svg PUBLIC "-//W3C//DTD SVG 20010904//EN"
 "http://www.w3.org/TR/2001/REC-SVG-20010904/DTD/svg10.dtd">
<svg version="1.0" xmlns="http://www.w3.org/2000/svg"
 width="700.000000pt" height="700.000000pt" viewBox="0 0 700.000000 700.000000"
 preserveAspectRatio="xMidYMid meet">
<metadata>
Created by potrace 1.11, written by Peter Selinger 2001-2013
</metadata>
<g transform="translate(0.000000,700.000000) scale(0.100000,-0.100000)"
fill="#000000" stroke="none">
<path d="M3270 6276 c-492 -53 -919 -195 -1325 -439 -767 -461 -1303 -1241
-1465 -2131 -35 -194 -45 -318 -44 -561 0 -347 43 -625 147 -955 l33 -105
1257 -3 1257 -2 -31 82 c-142 378 -239 720 -239 839 0 57 5 60 105 84 300 69
1046 60 1283 -16 l33 -11 -6 -56 c-16 -142 -108 -481 -215 -797 -22 -65 -40
-123 -40 -127 0 -4 559 -8 1243 -8 l1244 0 41 138 c107 356 144 600 145 957 0
216 -9 325 -44 525 -108 624 -399 1193 -839 1644 -511 523 -1126 832 -1860
931 -160 22 -523 27 -680 11z m587 -161 c830 -88 1575 -504 2075 -1161 256
-335 456 -778 542 -1196 99 -482 77 -1015 -60 -1451 l-25 -77 -1074 0 c-591 0
-1075 2 -1075 5 0 3 24 85 54 183 127 412 164 622 128 709 -20 46 -81 81 -187
108 -94 24 -370 55 -489 55 l-66 0 0 90 0 90 163 0 c338 0 528 -30 703 -110
61 -28 85 -35 92 -27 26 35 119 207 152 285 72 166 87 271 50 356 l-19 46
-571 0 -570 0 0 255 0 255 365 0 365 0 36 33 c30 27 37 41 38 74 1 48 -17 86
-53 110 -23 16 -62 18 -388 21 l-363 3 0 209 0 210 218 1 c234 1 272 7 305 51
39 53 15 135 -47 158 -17 6 -123 10 -252 10 l-224 0 0 130 c0 94 -4 141 -15
167 -35 84 -134 103 -196 37 -23 -24 -24 -34 -29 -177 l-5 -152 -243 -5 -244
-5 -29 -33 c-36 -40 -38 -83 -7 -128 32 -47 74 -54 317 -54 l211 0 0 -210 0
-210 -344 0 c-189 0 -358 -3 -375 -6 -39 -8 -87 -54 -94 -90 -7 -39 9 -87 39
-115 l26 -24 371 -5 372 -5 0 -250 0 -250 -602 -5 -601 -5 117 -327 c64 -179
119 -329 122 -332 3 -3 75 3 160 14 209 27 681 78 749 82 l55 2 0 -79 0 -80
-60 -3 c-33 -1 -124 -9 -202 -17 -316 -32 -448 -83 -467 -177 -22 -112 12
-297 115 -615 38 -120 73 -226 76 -235 5 -17 -51 -18 -1076 -18 l-1081 0 -11
28 c-18 45 -68 241 -84 328 -115 615 -44 1220 210 1797 86 196 242 448 392
637 94 119 338 362 463 460 429 340 951 561 1475 624 72 9 144 17 160 19 83
10 382 5 512 -8z m843 -2268 c0 -29 -44 -145 -86 -230 -36 -71 -48 -87 -62
-82 -9 4 -55 17 -102 30 -152 43 -276 56 -575 61 -308 5 -495 -8 -995 -66
-146 -17 -274 -31 -285 -33 -17 -2 -28 21 -77 158 -32 88 -58 163 -58 168 0 4
504 7 1120 7 927 0 1120 -2 1120 -13z"/>
<path d="M1336 1621 c-4 -39 -4 -75 -1 -81 3 -5 19 -10 35 -10 16 0 75 -24
130 -52 l101 -53 94 0 c94 1 95 1 197 53 85 44 112 53 155 54 64 0 78 -4 159
-52 131 -77 274 -77 404 -1 80 47 98 53 163 53 43 -1 70 -10 155 -54 103 -53
103 -53 197 -53 94 0 94 0 197 53 90 47 110 53 161 53 38 0 71 -6 95 -19 20
-10 61 -31 90 -46 123 -64 246 -58 388 20 44 24 92 44 105 44 41 0 46 10 41
89 l-4 73 -52 -4 c-51 -4 -95 -22 -191 -75 -41 -23 -62 -28 -115 -28 -59 1
-74 6 -154 50 -83 45 -96 49 -173 53 -104 6 -159 -8 -248 -61 -64 -39 -75 -42
-140 -42 -64 0 -76 4 -140 42 -98 57 -132 66 -239 61 -87 -4 -95 -7 -189 -56
-80 -42 -107 -52 -147 -52 -40 0 -67 10 -147 52 -94 49 -102 52 -189 56 -107
5 -141 -4 -238 -60 -54 -32 -82 -42 -130 -45 -55 -5 -67 -2 -121 27 -114 62
-138 72 -190 77 l-52 6 -7 -72z"/>
<path d="M3563 989 c-28 -5 -86 -27 -128 -49 -42 -22 -88 -40 -103 -40 -15 0
-70 20 -122 45 -60 28 -109 45 -132 45 -37 0 -38 -1 -38 -37 0 -21 -3 -54 -6
-74 -6 -35 -5 -37 27 -44 19 -4 62 -23 96 -42 116 -64 228 -63 351 5 89 49
135 49 224 0 125 -69 235 -69 357 -2 92 51 130 50 244 -6 79 -39 94 -43 161
-43 66 0 83 4 166 44 119 56 144 56 253 0 80 -41 90 -44 167 -44 76 0 87 3
159 40 42 22 91 44 110 48 31 6 33 9 27 37 -3 17 -6 51 -6 76 l0 45 -52 -6
c-34 -4 -81 -20 -131 -46 -43 -23 -91 -41 -106 -41 -16 0 -65 18 -110 40 -138
70 -239 71 -359 4 -94 -52 -133 -51 -243 5 -79 40 -92 43 -162 43 -70 0 -84
-4 -177 -47 -117 -55 -137 -55 -235 0 -53 29 -77 37 -160 49 -11 2 -43 -1 -72
-5z"/>
</g>
</svg>
