<?xml version="1.0" standalone="no"?>
<!DOCTYPE svg PUBLIC "-//W3C//DTD SVG 20010904//EN"
 "http://www.w3.org/TR/2001/REC-SVG-20010904/DTD/svg10.dtd">
<svg version="1.0" xmlns="http://www.w3.org/2000/svg"
 width="1064.000000pt" height="1064.000000pt" viewBox="0 0 1064.000000 1064.000000"
 preserveAspectRatio="xMidYMid meet">
<metadata>
Created by potrace 1.11, written by Peter Selinger 2001-2013
</metadata>
<g transform="translate(0.000000,1064.000000) scale(0.100000,-0.100000)"
fill="#000000" stroke="none">
<path d="M5030 9909 c-1581 -89 -3052 -939 -3933 -2272 -146 -221 -226 -361
-336 -588 -249 -514 -399 -1021 -471 -1589 -91 -723 -19 -1503 202 -2181 l44
-134 1967 -3 c1082 -1 1967 2 1967 6 0 4 -38 115 -85 246 -131 366 -235 707
-286 937 -11 52 -23 151 -26 221 -6 142 0 164 57 193 146 75 592 138 1055 148
l100 2 3 304 2 303 -92 -7 c-248 -17 -867 -84 -1336 -143 -123 -16 -225 -26
-227 -23 -5 9 -275 761 -275 768 0 2 434 3 965 3 l965 0 0 580 0 580 -659 0
c-594 0 -661 2 -676 16 -9 9 -14 21 -12 28 11 34 43 36 700 36 l647 0 -2 513
-3 512 -447 3 c-373 2 -448 5 -448 16 0 8 7 17 16 20 9 3 211 6 450 6 l434 0
0 289 c0 250 2 292 16 305 8 9 19 16 23 16 27 0 31 -39 33 -316 l3 -289 442
-5 c328 -4 445 -8 454 -17 10 -10 9 -13 -2 -18 -8 -3 -212 -6 -454 -7 l-440
-3 0 -510 0 -510 660 -5 c363 -3 666 -9 673 -13 16 -11 15 -42 -1 -56 -10 -8
-206 -12 -673 -13 l-659 -3 -3 -577 -2 -578 979 0 c883 0 979 -2 985 -16 19
-51 -7 -196 -60 -331 -51 -131 -182 -393 -220 -442 -2 -2 -9 1 -17 7 -22 19
-161 71 -258 97 -233 62 -451 85 -885 92 -192 3 -389 2 -437 -2 l-87 -7 0
-298 0 -299 43 -5 c23 -3 141 -7 262 -10 447 -11 874 -81 937 -154 24 -27 30
-83 18 -179 -29 -241 -134 -640 -301 -1150 -43 -133 -79 -246 -79 -252 0 -8
552 -10 1952 -9 l1951 3 29 85 c43 126 104 354 144 538 192 895 136 1847 -161
2712 -72 209 -138 367 -250 595 -590 1205 -1643 2133 -2915 2570 -622 213
-1281 302 -1960 264z m680 -64 c883 -69 1686 -344 2415 -828 706 -469 1282
-1112 1682 -1877 384 -733 581 -1589 560 -2425 -13 -493 -84 -925 -233 -1402
l-35 -113 -1890 0 c-1203 0 -1889 3 -1889 10 0 5 9 33 20 62 17 46 89 273 160
503 35 115 116 431 144 560 49 228 55 350 20 417 -19 37 -116 82 -239 113
-183 45 -595 85 -880 85 l-115 0 0 244 0 245 46 7 c79 12 727 -3 884 -20 281
-31 482 -81 637 -160 l70 -34 50 86 c215 366 313 681 252 807 l-14 30 -963 3
-962 2 0 520 0 520 631 0 c444 0 637 3 652 11 62 32 75 99 28 151 l-29 33
-641 3 -641 3 0 454 0 455 415 0 c352 0 420 2 445 15 57 30 49 104 -15 131
-28 11 -108 14 -440 14 l-405 0 0 248 c0 142 -5 263 -11 285 -21 78 -107 97
-161 37 l-28 -30 0 -270 0 -270 -409 0 c-263 0 -419 -4 -439 -11 -33 -11 -63
-60 -55 -90 3 -11 17 -28 31 -39 24 -19 42 -20 448 -20 l424 0 0 -455 0 -455
-617 0 c-399 0 -631 -4 -656 -11 -71 -19 -95 -105 -44 -157 l27 -27 645 -3
645 -2 0 -520 0 -520 -975 0 c-636 0 -975 -3 -975 -10 0 -10 310 -882 316
-889 2 -2 187 19 411 47 563 71 1051 122 1166 122 l57 0 0 -240 0 -240 -77 0
c-43 0 -152 -5 -243 -10 -514 -31 -831 -107 -882 -210 -23 -45 -24 -200 -2
-325 38 -219 182 -710 309 -1049 30 -82 55 -151 55 -153 0 -2 -858 -2 -1906
-1 l-1906 3 -20 60 c-307 958 -327 1972 -58 2930 356 1268 1195 2342 2347
3003 859 493 1879 724 2863 647z"/>
<path d="M1652 2273 c3 -26 7 -28 66 -35 65 -7 113 -27 247 -103 107 -60 163
-75 279 -75 119 0 184 20 311 96 115 68 167 84 280 85 110 0 172 -19 287 -91
112 -68 185 -90 307 -90 130 0 190 20 346 114 83 51 144 67 251 67 108 0 149
-13 292 -95 133 -75 188 -89 321 -84 124 5 155 15 290 93 125 71 172 85 281
85 109 0 156 -14 281 -85 135 -78 166 -88 290 -93 133 -5 188 9 319 83 127 72
164 87 235 94 57 6 60 7 63 35 l4 29 -69 -6 c-95 -8 -127 -19 -234 -84 -120
-72 -186 -93 -297 -93 -111 0 -162 16 -287 89 -126 75 -181 91 -306 91 -123 0
-189 -20 -312 -94 -114 -69 -168 -86 -278 -86 -111 0 -172 19 -285 87 -122 73
-190 93 -312 93 -131 0 -182 -16 -326 -103 -102 -61 -158 -77 -268 -77 -103 0
-181 22 -264 75 -129 83 -198 105 -329 105 -109 0 -175 -17 -257 -64 -164 -94
-206 -110 -307 -114 -127 -6 -177 7 -311 83 -125 71 -193 95 -265 95 -45 0
-46 -1 -43 -27z"/>
<path d="M4470 1121 c0 -32 5 -35 81 -46 29 -3 80 -25 135 -57 104 -59 139
-73 215 -82 109 -14 184 8 349 102 70 39 156 54 247 41 53 -7 87 -21 154 -59
101 -59 144 -75 220 -84 108 -14 179 6 339 96 79 45 162 60 251 48 60 -9 86
-19 219 -93 132 -73 281 -71 420 5 41 23 93 50 114 61 83 41 229 41 312 0 21
-11 73 -38 114 -61 139 -76 288 -78 420 -5 128 71 157 84 196 89 78 11 84 13
84 39 0 33 -9 36 -76 25 -56 -9 -85 -22 -229 -98 -119 -64 -255 -62 -375 6
-166 93 -233 110 -356 93 -66 -10 -99 -23 -224 -93 -120 -68 -256 -70 -375 -6
-145 77 -174 89 -234 99 -117 19 -198 -2 -361 -94 -78 -43 -162 -59 -250 -47
-63 9 -78 15 -210 88 -142 78 -287 78 -430 0 -128 -70 -151 -80 -212 -88 -85
-12 -170 4 -248 47 -108 60 -155 81 -196 88 -21 3 -51 9 -66 11 -26 5 -28 3
-28 -25z"/>
</g>
</svg>
